<svg width="1024" height="1024" viewBox="0 0 1024 1024" fill="none" xmlns="http://www.w3.org/2000/svg">
<rect width="1024" height="1024" fill="#0D1117"/>
<path d="M156.653 514.134V483.31C184.328 483.31 203.634 477.51 214.572 465.909C225.675 454.309 231.227 434.92 231.227 407.742V328.196C231.227 305.327 233.381 285.523 237.69 268.786C242.164 252.048 249.373 238.21 259.316 227.273C269.259 216.335 282.517 208.215 299.089 202.912C315.661 197.609 336.127 194.957 360.488 194.957V243.679C341.265 243.679 326.101 246.662 314.998 252.628C304.06 258.594 296.272 267.874 291.631 280.469C287.157 292.898 284.92 308.807 284.92 328.196V427.628C284.92 440.554 283.18 452.32 279.7 462.926C276.385 473.532 270.171 482.647 261.056 490.27C251.942 497.893 238.933 503.776 222.029 507.919C205.292 512.062 183.499 514.134 156.653 514.134ZM360.488 831.321C336.127 831.321 315.661 828.67 299.089 823.367C282.517 818.064 269.259 809.943 259.316 799.006C249.373 788.068 242.164 774.231 237.69 757.493C233.381 740.755 231.227 720.952 231.227 698.082V618.537C231.227 591.359 225.675 571.97 214.572 560.369C203.634 548.769 184.328 542.969 156.653 542.969V512.145C183.499 512.145 205.292 514.216 222.029 518.359C238.933 522.502 251.942 528.385 261.056 536.009C270.171 543.632 276.385 552.746 279.7 563.352C283.18 573.958 284.92 585.724 284.92 598.651V698.082C284.92 717.472 287.157 733.381 291.631 745.81C296.272 758.239 304.06 767.436 314.998 773.402C326.101 779.534 341.265 782.599 360.488 782.599V831.321ZM156.653 542.969V483.31H215.318V542.969H156.653ZM865.238 512.145V542.969C837.562 542.969 818.173 548.769 807.07 560.369C796.133 571.97 790.664 591.359 790.664 618.537V698.082C790.664 720.952 788.427 740.755 783.952 757.493C779.643 774.231 772.518 788.068 762.574 799.006C752.631 809.943 739.374 818.064 722.802 823.367C706.23 828.67 685.763 831.321 661.402 831.321V782.599C680.626 782.599 695.706 779.534 706.644 773.402C717.747 767.436 725.536 758.239 730.01 745.81C734.651 733.381 736.971 717.472 736.971 698.082V598.651C736.971 585.724 738.628 573.958 741.942 563.352C745.422 552.746 751.72 543.632 760.834 536.009C769.949 528.385 782.875 522.502 799.613 518.359C816.516 514.216 838.391 512.145 865.238 512.145ZM661.402 194.957C685.763 194.957 706.23 197.609 722.802 202.912C739.374 208.215 752.631 216.335 762.574 227.273C772.518 238.21 779.643 252.048 783.952 268.786C788.427 285.523 790.664 305.327 790.664 328.196V407.742C790.664 434.92 796.133 454.309 807.07 465.909C818.173 477.51 837.562 483.31 865.238 483.31V514.134C838.391 514.134 816.516 512.062 799.613 507.919C782.875 503.776 769.949 497.893 760.834 490.27C751.72 482.647 745.422 473.532 741.942 462.926C738.628 452.32 736.971 440.554 736.971 427.628V328.196C736.971 308.807 734.651 292.898 730.01 280.469C725.536 267.874 717.747 258.594 706.644 252.628C695.706 246.662 680.626 243.679 661.402 243.679V194.957ZM865.238 483.31V542.969H806.573V483.31H865.238Z" fill="url(#paint0_linear_4113_7)"/>
<path d="M384.924 693.996V330.359L694.015 512.177L384.924 693.996Z" fill="url(#paint1_linear_4113_7)"/>
<defs>
<linearGradient id="paint0_linear_4113_7" x1="510.976" y1="38.912" x2="510.976" y2="907.264" gradientUnits="userSpaceOnUse">
<stop stop-color="#FF9A5C"/>
<stop offset="1" stop-color="#FF6B2B"/>
</linearGradient>
<linearGradient id="paint1_linear_4113_7" x1="530.432" y1="325.632" x2="530.432" y2="698.368" gradientUnits="userSpaceOnUse">
<stop stop-color="#FF9A5C"/>
<stop offset="1" stop-color="#FF6B2B"/>
</linearGradient>
</defs>
</svg>
