<svg width="500" height="500" viewBox="0 0 500 500" fill="none" xmlns="http://www.w3.org/2000/svg">
<rect width="500" height="500" fill="#0D1117"/>
<path d="M86.4007 251.111V235.699C100.238 235.699 109.892 232.799 115.36 226.999C120.912 221.198 123.688 211.504 123.688 197.915V158.142C123.688 146.707 124.765 136.806 126.919 128.437C129.156 120.068 132.761 113.149 137.732 107.68C142.704 102.212 149.333 98.1515 157.619 95.5C165.905 92.8485 176.138 91.5227 188.318 91.5227V115.884C178.707 115.884 171.125 117.375 165.573 120.358C160.105 123.341 156.21 127.981 153.89 134.278C151.653 140.493 150.534 148.447 150.534 158.142V207.858C150.534 214.321 149.664 220.204 147.924 225.507C146.267 230.81 143.16 235.367 138.602 239.179C134.045 242.991 127.541 245.932 119.089 248.004C110.72 250.075 99.824 251.111 86.4007 251.111ZM188.318 409.705C176.138 409.705 165.905 408.379 157.619 405.727C149.333 403.076 142.704 399.016 137.732 393.547C132.761 388.078 129.156 381.159 126.919 372.79C124.765 364.422 123.688 354.52 123.688 343.085V303.312C123.688 289.723 120.912 280.029 115.36 274.229C109.892 268.428 100.238 265.528 86.4007 265.528V250.116C99.824 250.116 110.72 251.152 119.089 253.224C127.541 255.295 134.045 258.237 138.602 262.048C143.16 265.86 146.267 270.417 147.924 275.72C149.664 281.023 150.534 286.906 150.534 293.369V343.085C150.534 352.78 151.653 360.734 153.89 366.949C156.21 373.163 160.105 377.762 165.573 380.745C171.125 383.811 178.707 385.344 188.318 385.344V409.705ZM86.4007 265.528V235.699H115.733V265.528H86.4007ZM412.568 250.116V265.528C398.731 265.528 389.036 268.428 383.484 274.229C378.016 280.029 375.281 289.723 375.281 303.312V343.085C375.281 354.52 374.163 364.422 371.925 372.79C369.771 381.159 366.208 388.078 361.237 393.547C356.265 399.016 349.636 403.076 341.35 405.727C333.064 408.379 322.831 409.705 310.651 409.705V385.344C320.262 385.344 327.803 383.811 333.271 380.745C338.823 377.762 342.717 373.163 344.955 366.949C347.275 360.734 348.435 352.78 348.435 343.085V293.369C348.435 286.906 349.263 281.023 350.92 275.72C352.661 270.417 355.809 265.86 360.366 262.048C364.924 258.237 371.387 255.295 379.756 253.224C388.207 251.152 399.145 250.116 412.568 250.116ZM310.651 91.5227C322.831 91.5227 333.064 92.8485 341.35 95.5C349.636 98.1515 356.265 102.212 361.237 107.68C366.208 113.149 369.771 120.068 371.925 128.437C374.163 136.806 375.281 146.707 375.281 158.142V197.915C375.281 211.504 378.016 221.198 383.484 226.999C389.036 232.799 398.731 235.699 412.568 235.699V251.111C399.145 251.111 388.207 250.075 379.756 248.004C371.387 245.932 364.924 242.991 360.366 239.179C355.809 235.367 352.661 230.81 350.92 225.507C349.263 220.204 348.435 214.321 348.435 207.858V158.142C348.435 148.447 347.275 140.493 344.955 134.278C342.717 127.981 338.823 123.341 333.271 120.358C327.803 117.375 320.262 115.884 310.651 115.884V91.5227ZM412.568 235.699V265.528H383.236V235.699H412.568Z" fill="url(#paint0_linear_4113_7)"/>
<path d="M204.435 318.636V182.273L320.344 250.455L204.435 318.636Z" fill="url(#paint1_linear_4113_7)"/>
<defs>
<linearGradient id="paint0_linear_4113_7" x1="249.5" y1="19" x2="249.5" y2="443" gradientUnits="userSpaceOnUse">
<stop stop-color="#FF9A5C"/>
<stop offset="1" stop-color="#FF6B2B"/>
</linearGradient>
<linearGradient id="paint1_linear_4113_7" x1="259" y1="159" x2="259" y2="341" gradientUnits="userSpaceOnUse">
<stop stop-color="#FF9A5C"/>
<stop offset="1" stop-color="#FF6B2B"/>
</linearGradient>
</defs>
</svg>
